<svg width="79" height="81" viewBox="0 0 79 81" fill="none" xmlns="http://www.w3.org/2000/svg">
<ellipse cx="40" cy="40.5" rx="39" ry="40.5" fill="#F3CC00"/>
<g filter="url(#filter0_i_614_24330)">
<circle cx="37" cy="39" r="37" fill="#FFD600"/>
</g>
<circle cx="37" cy="39" r="33" fill="#FFD600"/>
<g opacity="0.4" filter="url(#filter1_f_614_24330)">
<circle cx="21" cy="25" r="13" fill="white"/>
</g>
<g opacity="0.4" filter="url(#filter2_f_614_24330)">
<circle cx="21" cy="25" r="7" fill="white"/>
</g>
<path d="M26 59H32.9549V46.9162H37.6071C45.0789 46.9162 51 43.4703 51 35.7054C51 27.6189 45.0789 25 37.4192 25H31C28.2386 25 26 27.2386 26 30V59ZM32.9549 41.5405V32.4216C32.9549 31.3171 33.8503 30.4216 34.9549 30.4216H36.9023C41.6955 30.4216 44.2331 31.7081 44.2331 35.7054C44.2331 39.5649 41.9305 41.5405 37.1372 41.5405H32.9549Z" fill="white"/>
<defs>
<filter id="filter0_i_614_24330" x="0" y="2" width="74" height="78" filterUnits="userSpaceOnUse" color-interpolation-filters="sRGB">
<feFlood flood-opacity="0" result="BackgroundImageFix"/>
<feBlend mode="normal" in="SourceGraphic" in2="BackgroundImageFix" result="shape"/>
<feColorMatrix in="SourceAlpha" type="matrix" values="0 0 0 0 0 0 0 0 0 0 0 0 0 0 0 0 0 0 127 0" result="hardAlpha"/>
<feOffset dy="4"/>
<feGaussianBlur stdDeviation="4.5"/>
<feComposite in2="hardAlpha" operator="arithmetic" k2="-1" k3="1"/>
<feColorMatrix type="matrix" values="0 0 0 0 1 0 0 0 0 0.947801 0 0 0 0 0.679167 0 0 0 1 0"/>
<feBlend mode="normal" in2="shape" result="effect1_innerShadow_614_24330"/>
</filter>
<filter id="filter1_f_614_24330" x="3" y="7" width="36" height="36" filterUnits="userSpaceOnUse" color-interpolation-filters="sRGB">
<feFlood flood-opacity="0" result="BackgroundImageFix"/>
<feBlend mode="normal" in="SourceGraphic" in2="BackgroundImageFix" result="shape"/>
<feGaussianBlur stdDeviation="2.5" result="effect1_foregroundBlur_614_24330"/>
</filter>
<filter id="filter2_f_614_24330" x="10" y="14" width="22" height="22" filterUnits="userSpaceOnUse" color-interpolation-filters="sRGB">
<feFlood flood-opacity="0" result="BackgroundImageFix"/>
<feBlend mode="normal" in="SourceGraphic" in2="BackgroundImageFix" result="shape"/>
<feGaussianBlur stdDeviation="2" result="effect1_foregroundBlur_614_24330"/>
</filter>
</defs>
</svg>
