<svg width="40" height="35" viewBox="0 0 40 35" fill="none" xmlns="http://www.w3.org/2000/svg">
<path fill-rule="evenodd" clip-rule="evenodd" d="M2.1421 24.7854C1.79988 24.7854 1.52246 25.0629 1.52246 25.4051V33.4603C1.52246 34.1448 2.0773 34.6996 2.76173 34.6996H23.2097C23.8942 34.6996 24.449 34.1448 24.449 33.4603V25.4051C24.449 25.0629 24.1716 24.7854 23.8294 24.7854H2.1421Z" fill="#5B5B5B"/>
<path fill-rule="evenodd" clip-rule="evenodd" d="M8.95812 0C4.16709 0 0.283203 3.88389 0.283203 8.67491V23.5462C0.283203 24.5728 1.11547 25.4051 2.14211 25.4051H23.8294C24.856 25.4051 25.6883 24.5728 25.6883 23.5462V8.67491C25.6883 3.88389 21.8044 0 17.0134 0H8.95812Z" fill="#313131"/>
<path fill-rule="evenodd" clip-rule="evenodd" d="M5.8599 16.7299C4.14882 16.7299 2.76172 18.117 2.76172 19.828C2.76172 21.5391 4.14882 22.9262 5.8599 22.9262H20.1115C21.8226 22.9262 23.2097 21.5391 23.2097 19.828C23.2097 18.117 21.8226 16.7299 20.1115 16.7299H5.8599Z" fill="#484848"/>
<path fill-rule="evenodd" clip-rule="evenodd" d="M8.33845 0C4.9163 0 2.14209 2.77421 2.14209 6.19636C2.14209 9.61852 4.9163 12.3927 8.33846 12.3927H17.633C21.0552 12.3927 23.8294 9.61852 23.8294 6.19636C23.8294 2.77421 21.0552 0 17.633 0H8.33845Z" fill="#484848"/>
<path fill-rule="evenodd" clip-rule="evenodd" d="M30.0258 1.23938C29.3413 1.23938 28.7865 1.79422 28.7865 2.47866V30.9819C28.7865 31.6664 29.3413 32.2212 30.0258 32.2212H36.2221C36.9066 32.2212 37.4614 31.6664 37.4614 30.9819V2.47865C37.4614 1.79422 36.9066 1.23938 36.2221 1.23938H30.0258Z" fill="#E2E2E2"/>
<path fill-rule="evenodd" clip-rule="evenodd" d="M28.1669 34.6996C27.4825 34.6996 26.9276 34.1447 26.9276 33.4603V32.8407C26.9276 32.1562 27.4825 31.6014 28.1669 31.6014H38.0811C38.7655 31.6014 39.3203 32.1562 39.3203 32.8407V33.4603C39.3203 34.1447 38.7655 34.6996 38.0811 34.6996H28.1669Z" fill="#D5D5D5"/>
<path fill-rule="evenodd" clip-rule="evenodd" d="M28.7865 11.1536C28.4443 11.1536 28.1669 10.8762 28.1669 10.534C28.1669 10.1918 28.4443 9.91435 28.7865 9.91435H37.4614C37.8036 9.91435 38.0811 10.1918 38.0811 10.534C38.0811 10.8762 37.8036 11.1536 37.4614 11.1536H28.7865Z" fill="#FF2E00"/>
<path fill-rule="evenodd" clip-rule="evenodd" d="M28.7865 23.5461C28.4443 23.5461 28.1669 23.2687 28.1669 22.9264C28.1669 22.5842 28.4443 22.3068 28.7865 22.3068H37.4614C37.8036 22.3068 38.0811 22.5842 38.0811 22.9264C38.0811 23.2687 37.8036 23.5461 37.4614 23.5461H28.7865Z" fill="#FF2E00"/>
<path fill-rule="evenodd" clip-rule="evenodd" d="M28.7865 30.3622C28.4443 30.3622 28.1669 30.0848 28.1669 29.7425C28.1669 29.4003 28.4443 29.1229 28.7865 29.1229H37.4614C37.8036 29.1229 38.0811 29.4003 38.0811 29.7425C38.0811 30.0848 37.8036 30.3622 37.4614 30.3622H28.7865Z" fill="#FF2E00"/>
</svg>
