<svg width="56" height="22" viewBox="0 0 56 22" fill="none" xmlns="http://www.w3.org/2000/svg">
<path fill-rule="evenodd" clip-rule="evenodd" d="M21.2443 12.4717V21.2439H19.7792V6.18579H21.2443C21.2443 8.47531 22.3441 11.9731 24.0827 14.9139C24.9466 16.3751 25.9443 17.6569 26.9989 18.5647C27.803 19.2569 28.6058 19.7032 29.3838 19.8781V6.18579H30.8489V21.4269H30.1164C28.6349 21.4269 27.2501 20.7141 26.0431 19.6751C24.8313 18.632 23.7382 17.2099 22.8215 15.6596C22.2237 14.6483 21.6907 13.5646 21.2443 12.4717Z" fill="black"/>
<path fill-rule="evenodd" clip-rule="evenodd" d="M31.907 6.10205L32.6421 6.10465C34.335 6.11064 36.6539 6.54447 38.5754 7.73428C40.531 8.94526 42.0814 10.9526 42.0814 14.0095C42.0814 17.0776 40.5181 18.9705 38.5421 20.0547C36.6131 21.1132 34.2975 21.407 32.6395 21.407H31.907V6.10205ZM33.3721 7.6013V19.9212C34.7822 19.8427 36.4571 19.5276 37.8373 18.7703C39.419 17.9024 40.6163 16.4628 40.6163 14.0095C40.6163 11.5451 39.4061 9.97195 37.804 8.97992C36.4229 8.12468 34.7571 7.71228 33.3721 7.6013Z" fill="black"/>
<path fill-rule="evenodd" clip-rule="evenodd" d="M49 1.46512C45.9432 1.46512 43.4651 3.94317 43.4651 7C43.4651 10.0568 45.9432 12.5349 49 12.5349C52.0568 12.5349 54.5349 10.0568 54.5349 7C54.5349 3.94317 52.0568 1.46512 49 1.46512ZM42 7C42 3.13401 45.134 0 49 0C52.866 0 56 3.13401 56 7C56 10.866 52.866 14 49 14C45.134 14 42 10.866 42 7Z" fill="black"/>
<path fill-rule="evenodd" clip-rule="evenodd" d="M9.68548 2.48149L8.9338 0.708008L8.31703 2.53287L8.317 2.53297L8.31661 2.53412L8.31475 2.53958C8.31304 2.5446 8.31038 2.55239 8.30678 2.56286C8.29959 2.58379 8.28865 2.61543 8.27406 2.65714C8.24487 2.74055 8.2011 2.86417 8.14349 3.02276C8.02824 3.34 7.85776 3.79679 7.6381 4.35127C7.19831 5.46143 6.56364 6.95746 5.78274 8.50674C5.00009 10.0595 4.08042 11.6459 3.07459 12.9472C2.05627 14.2647 1.01081 15.2091 0 15.5946H2.29592C3.07459 15.2209 3.50246 14.6957 4.57499 13.3081C5.66 11.9043 6.2865 10.7624 7.09106 9.16619C7.89737 7.56649 8.54976 6.028 9.00023 4.89088C9.02799 4.8208 9.055 4.75223 9.08123 4.68523C9.13212 4.79184 9.18536 4.90256 9.24088 5.01704C9.81051 6.19167 10.6225 7.76827 11.589 9.36792C12.5526 10.9629 13.6846 12.6054 14.8986 13.8969C16.0349 14.9419 16.418 14.9419 16.418 14.9419H19.115C18.1273 14.4476 17.1021 14.1021 15.9661 12.8935C14.8527 11.7089 13.7819 10.1643 12.843 8.61025C11.9069 7.06091 11.1163 5.52669 10.5592 4.37774C10.2809 3.80394 10.0616 3.32784 9.91224 2.99603C9.83758 2.83017 9.78043 2.70046 9.74217 2.61275C9.72305 2.5689 9.70865 2.53555 9.69914 2.51344C9.69439 2.50238 9.69087 2.49414 9.68859 2.48879L9.6861 2.48296L9.68557 2.4817L9.68548 2.48149Z" fill="black"/>
<path fill-rule="evenodd" clip-rule="evenodd" d="M13.2028 11.2325H5.95862V9.76733H13.2028V11.2325Z" fill="black"/>
</svg>
